# xmcd
#
# Track frame offsets: 
#        182
#        8665
#        19137
#        30235
#        45395
#        56712
#        68642
#        78470
#        89337
#        100065
#        111665
#        134882
#        145007
#        156042
#
# Disc length: 2212 seconds
#
# Revision: 1
# Processed by: cddbd v1.5.2PL0 Copyright (c) Steve Scherf et al.
# Submitted via: ExactAudioCopy v1.1
#
DISCID=b208a20e
DTITLE=Various Artist - Spotlite On Roulette Records - Volume 1
DYEAR=1993
DGENRE=R&B
TTITLE0=The Heartbeats - Down On My Knees (mono)
TTITLE1=The Cleftones - She's So Fine (mono)
TTITLE2=Tiny Tim and The Hits - Wedding Bells (mono)
TTITLE3=The Edsels - Do You Love Me (mono)
TTITLE4=The Heartbeats - I Found A Job (mono)
TTITLE5=The Five Satins - Ain't Gonna Dance (mono)
TTITLE6=Darrell and The Oxfords - Can't You Tell (mono)
TTITLE7=The Domineers - Nothing Can Go Wrong (mono)
TTITLE8=The Turbans - Diamonds And Pearls (mono)
TTITLE9=The Martiniques - Tonight Is Just Another Night (mono)
TTITLE10=The Flamingos - Ol' Man River (mono)
TTITLE11=The Ly-Dells - Karen (mono)
TTITLE12=The Devotions - Tears From A Broken Heart (mono)
TTITLE13=The Chances - A Long And Sleepless Night (mono)
EXTD=
EXTT0=
EXTT1=
EXTT2=
EXTT3=
EXTT4=
EXTT5=
EXTT6=
EXTT7=
EXTT8=
EXTT9=
EXTT10=
EXTT11=
EXTT12=
EXTT13=
PLAYORDER=
